<?xml version="1.0" encoding="utf-8"?>
<!-- Generator: Adobe Illustrator 25.2.0, SVG Export Plug-In . SVG Version: 6.00 Build 0)  -->
<svg version="1.1" id="Layer_1" xmlns="http://www.w3.org/2000/svg" xmlns:xlink="http://www.w3.org/1999/xlink" x="0px" y="0px"
	 viewBox="0 0 2000 2000" style="enable-background:new 0 0 2000 2000;" xml:space="preserve">
<style type="text/css">
	.st0{display:none;fill:#405C58;}
	.st1{display:none;fill:#FFFFFF;stroke:#000000;stroke-miterlimit:10;}
	.st2{fill:#01252D;}
	.st3{fill:#E95B27;}
	.st4{fill:#25B5E9;}
</style>
<rect class="st0" width="2000" height="2000"/>
<g>
	<g>
		<path class="st3" d="M423.69,1295.05c-14.56,0-26.02-4.05-34.39-12.14c-8.36-8.08-12.54-19.08-12.54-32.97h21.64
			c0,8.22,2.22,14.6,6.67,19.11c4.45,4.53,10.65,6.78,18.61,6.78c7.96,0,14.16-2.25,18.61-6.78c4.45-4.51,6.67-10.82,6.67-18.91
			v-84.75h-34.79v-20.03h56.43v104.78c0,13.89-4.22,24.85-12.64,32.87C449.54,1291.04,438.11,1295.05,423.69,1295.05z"/>
		<path class="st3" d="M551.11,1295.05c-9.17,0-17.09-1.72-23.77-5.16c-6.67-3.44-11.8-8.42-15.37-14.96
			c-3.58-6.54-5.36-14.2-5.36-22.96v-65.54c0-8.9,1.78-16.59,5.36-23.06c3.57-6.47,8.7-11.42,15.37-14.86
			c6.67-3.44,14.6-5.15,23.77-5.15s17.09,1.72,23.77,5.15c6.67,3.44,11.8,8.4,15.38,14.86c3.57,6.47,5.36,14.1,5.36,22.86v65.74
			c0,8.76-1.79,16.42-5.36,22.96c-3.58,6.54-8.7,11.53-15.38,14.96C568.21,1293.33,560.28,1295.05,551.11,1295.05z M551.11,1275.64
			c7.42,0,13.05-2.06,16.89-6.18c3.85-4.1,5.76-9.94,5.76-17.49v-65.54c0-7.69-1.92-13.55-5.76-17.6
			c-3.84-4.05-9.47-6.07-16.89-6.07c-7.28,0-12.87,2.02-16.79,6.07s-5.86,9.91-5.86,17.6v65.54c0,7.55,1.95,13.39,5.86,17.49
			C538.24,1273.58,543.83,1275.64,551.11,1275.64z"/>
		<path class="st3" d="M673.08,1295.05c-9.98,0-18.55-1.65-25.69-4.95c-7.15-3.3-12.68-8.02-16.59-14.16
			c-3.91-6.14-5.86-13.45-5.86-21.94h21.64c0,6.74,2.35,12.03,7.08,15.87c4.72,3.85,11.26,5.77,19.62,5.77
			c7.82,0,13.96-1.89,18.41-5.66c4.45-3.77,6.67-8.97,6.67-15.57c0-5.53-1.51-10.32-4.55-14.36c-3.03-4.05-7.38-6.81-13.05-8.3
			l-18.61-5.46c-10.79-3.1-19.12-8.39-24.98-15.88c-5.86-7.48-8.8-16.42-8.8-26.8c0-8.09,1.83-15.17,5.47-21.24
			c3.64-6.07,8.83-10.78,15.57-14.16c6.74-3.37,14.69-5.05,23.87-5.05c13.49,0,24.3,3.64,32.46,10.93
			c8.16,7.28,12.3,17.06,12.44,29.32h-21.85c0-6.47-2.06-11.56-6.17-15.27c-4.11-3.71-9.88-5.57-17.29-5.57
			c-7.15,0-12.74,1.73-16.79,5.16s-6.07,8.26-6.07,14.46c0,5.53,1.52,10.32,4.55,14.36c3.04,4.05,7.38,6.88,13.05,8.5l18.81,5.66
			c10.78,2.96,19.08,8.22,24.88,15.78c5.8,7.55,8.7,16.58,8.7,27.1c0,8.22-1.96,15.47-5.86,21.74c-3.91,6.27-9.37,11.12-16.38,14.56
			C690.75,1293.33,682.52,1295.05,673.08,1295.05z"/>
		<path class="st3" d="M750.35,1293.03v-147.66h21.84v61.09h43.29v-61.09h21.84v147.66h-21.84v-66.34h-43.29v66.34H750.35z"/>
		<path class="st4" d="M925.41,1293.03v-147.66h21.84v61.09h43.29v-61.09h21.84v147.66h-21.84v-66.34h-43.29v66.34H925.41z"/>
		<path class="st4" d="M1038.28,1293.03l37.62-147.66h28.72l37.62,147.66h-22.05l-8.89-37.42h-41.88l-8.89,37.42H1038.28z
			 M1073.47,1237.61h33.58l-10.12-42.69c-1.75-7.55-3.2-14.12-4.34-19.72c-1.15-5.59-1.92-9.41-2.33-11.43
			c-0.4,2.02-1.15,5.84-2.22,11.43c-1.08,5.6-2.57,12.11-4.45,19.52L1073.47,1237.61z"/>
		<path class="st4" d="M1170.77,1293.03v-19.41h29.74v-108.82h-29.74v-19.42h81.72v19.42h-29.74v108.82h29.74v19.41H1170.77z"/>
		<path class="st4" d="M1288.69,1293.03v-147.66h27.51l43.08,122.78c-0.27-3.91-0.6-8.56-1.01-13.96s-0.71-10.99-0.91-16.79
			c-0.21-5.8-0.31-11.06-0.31-15.77v-76.26h20.22v147.66h-27.51l-42.88-122.78c0.27,3.51,0.58,7.89,0.92,13.15
			c0.33,5.26,0.6,10.73,0.81,16.38c0.2,5.67,0.3,10.93,0.3,15.78v77.47H1288.69z"/>
		<path class="st4" d="M1412.67,1293.03v-147.66h86.77v19.42h-65.33v41.87h58.25v19.22h-58.25v47.74h65.33v19.41H1412.67z"/>
		<path class="st4" d="M1576.31,1295.05c-9.98,0-18.55-1.65-25.69-4.95c-7.15-3.3-12.68-8.02-16.59-14.16
			c-3.91-6.14-5.86-13.45-5.86-21.94h21.64c0,6.74,2.35,12.03,7.08,15.87c4.72,3.85,11.26,5.77,19.62,5.77
			c7.82,0,13.96-1.89,18.41-5.66c4.45-3.77,6.67-8.97,6.67-15.57c0-5.53-1.51-10.32-4.55-14.36c-3.03-4.05-7.38-6.81-13.05-8.3
			l-18.61-5.46c-10.79-3.1-19.12-8.39-24.98-15.88c-5.86-7.48-8.8-16.42-8.8-26.8c0-8.09,1.82-15.17,5.47-21.24
			c3.64-6.07,8.83-10.78,15.57-14.16c6.74-3.37,14.69-5.05,23.87-5.05c13.49,0,24.3,3.64,32.46,10.93
			c8.16,7.28,12.3,17.06,12.44,29.32h-21.85c0-6.47-2.06-11.56-6.17-15.27c-4.11-3.71-9.88-5.57-17.29-5.57
			c-7.15,0-12.74,1.73-16.79,5.16c-4.05,3.44-6.07,8.26-6.07,14.46c0,5.53,1.52,10.32,4.55,14.36c3.04,4.05,7.38,6.88,13.05,8.5
			l18.81,5.66c10.78,2.96,19.08,8.22,24.88,15.78c5.8,7.55,8.7,16.58,8.7,27.1c0,8.22-1.96,15.47-5.86,21.74
			c-3.91,6.27-9.37,11.12-16.38,14.56C1593.98,1293.33,1585.74,1295.05,1576.31,1295.05z"/>
	</g>
	<g>
		<g>
			<polygon class="st3" points="1352.52,704.95 1099.97,822.44 974.87,978.51 			"/>
			<polygon class="st4" points="980.83,818.49 747.48,849.56 914.88,920.63 961.27,832.32 873.51,1051.93 886.77,1042.32 
				1100.59,819.25 1120.49,787.16 647.48,807.1 703.02,830.68 			"/>
		</g>
	</g>
</g>
</svg>
