<?xml version="1.0" encoding="utf-8"?>
<!-- Generator: Adobe Illustrator 25.2.0, SVG Export Plug-In . SVG Version: 6.00 Build 0)  -->
<svg version="1.1" id="Layer_1" xmlns="http://www.w3.org/2000/svg" xmlns:xlink="http://www.w3.org/1999/xlink" x="0px" y="0px"
	 viewBox="0 0 2000 2000" style="enable-background:new 0 0 2000 2000;" xml:space="preserve">
<style type="text/css">
	.st0{display:none;fill:#405C58;}
	.st1{display:none;fill:#FFFFFF;stroke:#000000;stroke-miterlimit:10;}
	.st2{fill:#01252D;}
	.st3{fill:#E95B27;}
	.st4{fill:#25B5E9;}
</style>
<rect class="st1" width="2000" height="2000"/>
<g>
	<g>
		<path class="st3" d="M467.64,1337.32c-13.45,0-24.04-3.74-31.76-11.21c-7.72-7.47-11.58-17.62-11.58-30.45h19.99
			c0,7.6,2.05,13.49,6.16,17.65c4.11,4.18,9.84,6.26,17.19,6.26c7.35,0,13.08-2.08,17.19-6.26c4.11-4.17,6.16-9.99,6.16-17.47
			v-78.29h-32.14v-18.5h52.13v96.79c0,12.83-3.9,22.95-11.68,30.37C491.52,1333.61,480.97,1337.32,467.64,1337.32z"/>
		<path class="st3" d="M585.35,1337.32c-8.47,0-15.79-1.59-21.95-4.77c-6.16-3.17-10.9-7.78-14.2-13.82
			c-3.3-6.04-4.95-13.11-4.95-21.21v-60.54c0-8.22,1.65-15.32,4.95-21.31c3.3-5.97,8.03-10.55,14.2-13.73
			c6.16-3.17,13.49-4.76,21.95-4.76s15.79,1.59,21.95,4.76c6.16,3.18,10.9,7.76,14.2,13.73c3.3,5.98,4.95,13.02,4.95,21.11v60.73
			c0,8.09-1.66,15.16-4.95,21.21c-3.3,6.04-8.04,10.65-14.2,13.82C601.14,1335.73,593.82,1337.32,585.35,1337.32z M585.35,1319.38
			c6.85,0,12.05-1.9,15.6-5.71c3.55-3.79,5.32-9.18,5.32-16.16v-60.54c0-7.1-1.77-12.52-5.32-16.26c-3.55-3.74-8.75-5.61-15.6-5.61
			c-6.73,0-11.89,1.87-15.51,5.61s-5.42,9.15-5.42,16.26v60.54c0,6.97,1.8,12.37,5.42,16.16
			C573.46,1317.48,578.62,1319.38,585.35,1319.38z"/>
		<path class="st3" d="M698.02,1337.32c-9.22,0-17.13-1.53-23.73-4.58c-6.61-3.05-11.71-7.41-15.32-13.08
			c-3.61-5.67-5.42-12.43-5.42-20.27h19.99c0,6.22,2.17,11.11,6.54,14.66c4.36,3.55,10.4,5.33,18.12,5.33c7.22,0,12.89-1.75,17-5.23
			s6.16-8.28,6.16-14.39c0-5.11-1.4-9.54-4.2-13.27c-2.8-3.74-6.82-6.29-12.05-7.67l-17.19-5.04c-9.97-2.86-17.66-7.75-23.08-14.67
			c-5.42-6.91-8.13-15.16-8.13-24.75c0-7.48,1.69-14.01,5.05-19.62s8.15-9.96,14.39-13.08c6.22-3.11,13.57-4.67,22.05-4.67
			c12.46,0,22.45,3.36,29.99,10.09c7.54,6.73,11.37,15.76,11.5,27.09H719.5c0-5.97-1.9-10.68-5.7-14.1s-9.12-5.14-15.97-5.14
			c-6.61,0-11.77,1.59-15.51,4.77s-5.61,7.63-5.61,13.36c0,5.11,1.4,9.54,4.2,13.27c2.81,3.74,6.82,6.35,12.05,7.85l17.38,5.23
			c9.96,2.74,17.63,7.6,22.98,14.58c5.35,6.97,8.03,15.32,8.03,25.04c0,7.6-1.81,14.29-5.42,20.08
			c-3.62,5.79-8.66,10.28-15.13,13.45C714.33,1335.73,706.73,1337.32,698.02,1337.32z"/>
		<path class="st3" d="M769.39,1335.45v-136.4h20.18v56.43h39.99v-56.43h20.18v136.4h-20.18v-61.28h-39.99v61.28H769.39z"/>
		<path class="st4" d="M931.1,1335.45v-136.4h20.18v56.43h39.99v-56.43h20.18v136.4h-20.18v-61.28h-39.99v61.28H931.1z"/>
		<path class="st4" d="M1035.36,1335.45l34.75-136.4h26.53l34.75,136.4h-20.37l-8.22-34.56h-38.68l-8.22,34.56H1035.36z
			 M1067.87,1284.25h31.02l-9.34-39.43c-1.62-6.97-2.96-13.04-4.01-18.22c-1.06-5.16-1.78-8.69-2.15-10.56
			c-0.37,1.87-1.06,5.39-2.05,10.56c-1,5.17-2.37,11.18-4.11,18.03L1067.87,1284.25z"/>
		<path class="st4" d="M1157.74,1335.45v-17.93h27.47v-100.52h-27.47v-17.94h75.49v17.94h-27.47v100.52h27.47v17.93H1157.74z"/>
		<path class="st4" d="M1266.67,1335.45v-136.4h25.41l39.8,113.42c-0.25-3.61-0.56-7.91-0.93-12.89
			c-0.37-4.98-0.66-10.15-0.84-15.51c-0.19-5.35-0.28-10.21-0.28-14.57v-70.45h18.68v136.4h-25.41l-39.61-113.42
			c0.25,3.24,0.53,7.28,0.85,12.14c0.31,4.86,0.56,9.91,0.75,15.13c0.18,5.23,0.27,10.09,0.27,14.58v71.56H1266.67z"/>
		<path class="st4" d="M1381.2,1335.45v-136.4h80.16v17.94h-60.35v38.67h53.81v17.75h-53.81v44.1h60.35v17.93H1381.2z"/>
		<path class="st4" d="M1532.36,1337.32c-9.22,0-17.13-1.53-23.73-4.58c-6.61-3.05-11.71-7.41-15.32-13.08
			c-3.61-5.67-5.42-12.43-5.42-20.27h19.99c0,6.22,2.17,11.11,6.54,14.66c4.36,3.55,10.4,5.33,18.12,5.33c7.22,0,12.89-1.75,17-5.23
			s6.16-8.28,6.16-14.39c0-5.11-1.4-9.54-4.2-13.27c-2.8-3.74-6.82-6.29-12.05-7.67l-17.19-5.04c-9.97-2.86-17.66-7.75-23.08-14.67
			c-5.42-6.91-8.13-15.16-8.13-24.75c0-7.48,1.69-14.01,5.05-19.62s8.15-9.96,14.39-13.08c6.22-3.11,13.57-4.67,22.05-4.67
			c12.46,0,22.45,3.36,29.99,10.09c7.54,6.73,11.37,15.76,11.5,27.09h-20.18c0-5.97-1.9-10.68-5.7-14.1s-9.12-5.14-15.97-5.14
			c-6.61,0-11.77,1.59-15.51,4.77s-5.61,7.63-5.61,13.36c0,5.11,1.4,9.54,4.2,13.27c2.81,3.74,6.82,6.35,12.05,7.85l17.38,5.23
			c9.96,2.74,17.63,7.6,22.98,14.58c5.35,6.97,8.03,15.32,8.03,25.04c0,7.6-1.81,14.29-5.42,20.08
			c-3.62,5.79-8.66,10.28-15.13,13.45C1548.68,1335.73,1541.07,1337.32,1532.36,1337.32z"/>
	</g>
	<g>
		<polygon class="st3" points="978.63,662.68 737.67,1102.72 1034.19,823.71 		"/>
		<polygon class="st4" points="738.98,1135.9 1100.13,1014.87 1043.15,849.69 		"/>
		<polygon class="st4" points="1030.88,737.28 1126.69,1015.01 1127.18,1015.38 1134.24,906.75 		"/>
		<polygon class="st3" points="1134.24,906.75 1127.18,1015.38 1262.33,1116.77 		"/>
	</g>
</g>
</svg>
