<?xml version="1.0" standalone="no"?>
<!DOCTYPE svg PUBLIC "-//W3C//DTD SVG 20010904//EN"
 "http://www.w3.org/TR/2001/REC-SVG-20010904/DTD/svg10.dtd">
<svg version="1.0" xmlns="http://www.w3.org/2000/svg"
 width="512.000000pt" height="512.000000pt" viewBox="0 0 512.000000 512.000000"
 preserveAspectRatio="xMidYMid meet">
<metadata>
Created by potrace 1.14, written by Peter Selinger 2001-2017
</metadata>
<g transform="translate(0.000000,512.000000) scale(0.100000,-0.100000)"
fill="#000000" stroke="none">
<path d="M5065 3685 c-27 -13 -81 -39 -120 -56 -38 -18 -125 -59 -193 -91 -68
-32 -125 -58 -127 -58 -2 0 -69 -31 -150 -70 -81 -38 -148 -70 -149 -70 -2 0
-48 -21 -102 -47 -54 -26 -101 -48 -104 -48 -6 -2 -75 -34 -200 -93 -47 -21
-116 -54 -155 -72 -105 -49 -375 -174 -420 -194 -33 -15 -85 -74 -280 -319
-132 -165 -245 -305 -250 -311 -6 -6 -35 -42 -65 -81 -30 -38 -63 -79 -72 -90
-77 -93 -265 -331 -263 -333 2 -2 619 440 765 548 14 10 106 77 205 149 99 72
189 137 200 145 73 54 517 374 547 395 20 14 138 100 263 191 125 91 246 179
270 195 23 17 53 38 66 48 13 10 104 76 203 147 220 159 214 154 131 115z"/>
<path d="M3247 3113 c-1 0 -83 -4 -182 -8 -99 -3 -209 -8 -245 -10 -36 -2
-141 -6 -235 -10 -93 -3 -206 -8 -250 -10 -44 -2 -150 -6 -235 -10 -85 -3
-195 -8 -245 -10 -49 -3 -148 -7 -220 -10 -71 -3 -184 -7 -250 -10 -206 -9
-335 -15 -475 -20 -74 -3 -180 -8 -235 -10 -55 -3 -163 -7 -240 -10 -77 -3
-183 -8 -235 -10 -52 -2 -113 -4 -135 -5 l-40 0 40 -19 c43 -21 75 -35 175
-76 36 -15 83 -35 105 -45 70 -30 80 -33 105 -33 30 1 417 18 640 28 58 3 157
7 220 10 63 3 174 7 245 11 72 3 175 7 230 10 55 2 150 6 210 9 344 15 408 13
227 -9 -29 -3 -101 -13 -160 -21 -59 -8 -129 -17 -157 -20 -27 -3 -61 -8 -75
-11 -14 -2 -43 -6 -65 -9 -22 -2 -69 -8 -105 -14 -36 -6 -92 -13 -124 -17 -33
-3 -67 -7 -76 -9 -9 -2 -41 -6 -71 -10 -30 -3 -65 -8 -79 -10 -26 -4 -75 -11
-145 -19 -22 -3 -56 -7 -75 -10 -146 -21 -191 -27 -230 -31 -49 -5 -91 -12
-96 -18 -2 -1 54 -27 124 -56 70 -30 145 -62 167 -72 151 -66 896 -379 903
-379 5 0 32 44 60 98 28 53 73 140 101 192 28 52 74 141 103 197 29 56 54 101
55 99 3 -2 -32 -93 -62 -161 -7 -16 -120 -298 -250 -625 -228 -573 -249 -625
-281 -698 -8 -18 -14 -37 -14 -43 0 -32 172 133 499 480 24 25 125 131 225
235 99 104 204 212 231 241 28 29 140 146 251 261 111 115 222 232 248 259 26
28 78 82 116 120 57 59 152 194 199 283 l12 23 -101 -3 c-56 -2 -102 -4 -103
-5z"/>
</g>
</svg>
