<?xml version="1.0" encoding="utf-8"?>
<!-- Generator: Adobe Illustrator 25.2.0, SVG Export Plug-In . SVG Version: 6.00 Build 0)  -->
<svg version="1.1" id="Layer_1" xmlns="http://www.w3.org/2000/svg" xmlns:xlink="http://www.w3.org/1999/xlink" x="0px" y="0px"
	 viewBox="0 0 2000 2000" style="enable-background:new 0 0 2000 2000;" xml:space="preserve">
<style type="text/css">
	.st0{display:none;fill:#405C58;}
	.st1{display:none;fill:#FFFFFF;stroke:#000000;stroke-miterlimit:10;}
	.st2{fill:#01252D;}
	.st3{fill:#E95B27;}
	.st4{fill:#25B5E9;}
</style>
<rect class="st2" width="2000" height="2000"/>
<g>
	<g>
		<path class="st3" d="M459.3,1342.6c-13.66,0-24.41-3.8-32.26-11.39c-7.84-7.58-11.76-17.9-11.76-30.93h20.31
			c0,7.72,2.08,13.7,6.26,17.93c4.18,4.25,9.99,6.36,17.46,6.36c7.47,0,13.29-2.12,17.46-6.36c4.18-4.23,6.26-10.15,6.26-17.74
			v-79.51h-32.64v-18.79h52.95v98.3c0,13.03-3.96,23.31-11.86,30.84C483.55,1338.84,472.83,1342.6,459.3,1342.6z"/>
		<path class="st3" d="M578.85,1342.6c-8.6,0-16.04-1.61-22.3-4.84c-6.26-3.22-11.07-7.9-14.42-14.04
			c-3.35-6.14-5.03-13.32-5.03-21.54v-61.49c0-8.35,1.67-15.57,5.03-21.64c3.35-6.07,8.16-10.72,14.42-13.95
			c6.26-3.22,13.7-4.83,22.3-4.83c8.6,0,16.04,1.61,22.3,4.83c6.26,3.23,11.07,7.88,14.43,13.95c3.35,6.07,5.03,13.23,5.03,21.45
			v61.68c0,8.22-1.68,15.4-5.03,21.54c-3.35,6.14-8.17,10.82-14.43,14.04C594.89,1340.99,587.45,1342.6,578.85,1342.6z
			 M578.85,1324.39c6.96,0,12.24-1.93,15.84-5.8c3.61-3.85,5.41-9.33,5.41-16.41v-61.49c0-7.21-1.8-12.71-5.41-16.51
			c-3.6-3.8-8.89-5.69-15.84-5.69c-6.83,0-12.08,1.9-15.75,5.69c-3.67,3.8-5.5,9.3-5.5,16.51v61.49c0,7.08,1.83,12.56,5.5,16.41
			C566.77,1322.46,572.02,1324.39,578.85,1324.39z"/>
		<path class="st3" d="M693.28,1342.6c-9.37,0-17.4-1.55-24.1-4.65c-6.71-3.1-11.89-7.52-15.57-13.29
			c-3.66-5.76-5.5-12.62-5.5-20.59h20.31c0,6.32,2.21,11.29,6.64,14.89c4.43,3.61,10.56,5.42,18.41,5.42
			c7.34,0,13.09-1.77,17.27-5.31c4.18-3.54,6.26-8.41,6.26-14.61c0-5.19-1.42-9.68-4.27-13.47c-2.84-3.8-6.93-6.39-12.24-7.79
			l-17.46-5.12c-10.13-2.91-17.94-7.87-23.44-14.9c-5.5-7.02-8.26-15.4-8.26-25.14c0-7.59,1.71-14.23,5.13-19.93
			s8.28-10.12,14.61-13.29c6.32-3.16,13.78-4.74,22.39-4.74c12.65,0,22.8,3.42,30.46,10.25s11.54,16.01,11.68,27.51h-20.5
			c0-6.07-1.93-10.85-5.79-14.33c-3.86-3.48-9.27-5.22-16.22-5.22c-6.71,0-11.95,1.62-15.75,4.84c-3.8,3.22-5.69,7.75-5.69,13.57
			c0,5.19,1.43,9.68,4.27,13.47c2.85,3.8,6.93,6.45,12.24,7.97l17.65,5.31c10.12,2.78,17.9,7.72,23.34,14.81
			c5.44,7.08,8.16,15.56,8.16,25.43c0,7.72-1.84,14.51-5.5,20.4c-3.67,5.88-8.79,10.44-15.37,13.66
			C709.86,1340.99,702.13,1342.6,693.28,1342.6z"/>
		<path class="st3" d="M765.77,1340.7v-138.54h20.49v57.32h40.61v-57.32h20.49v138.54h-20.49v-62.24h-40.61v62.24H765.77z"/>
		<path class="st4" d="M930.02,1340.7v-138.54h20.49v57.32h40.61v-57.32h20.49v138.54h-20.49v-62.24h-40.61v62.24H930.02z"/>
		<path class="st4" d="M1035.91,1340.7l35.3-138.54h26.95l35.3,138.54h-20.69l-8.34-35.1h-39.29l-8.34,35.1H1035.91z
			 M1068.93,1288.71h31.5l-9.49-40.05c-1.64-7.08-3.01-13.25-4.08-18.5c-1.08-5.25-1.81-8.82-2.18-10.72
			c-0.38,1.9-1.08,5.48-2.08,10.72c-1.02,5.25-2.41,11.36-4.18,18.32L1068.93,1288.71z"/>
		<path class="st4" d="M1160.21,1340.7v-18.21h27.9v-102.1h-27.9v-18.22h76.67v18.22h-27.9v102.1h27.9v18.21H1160.21z"/>
		<path class="st4" d="M1270.85,1340.7v-138.54h25.81l40.42,115.19c-0.26-3.66-0.57-8.03-0.95-13.09
			c-0.38-5.06-0.67-10.31-0.85-15.75c-0.19-5.44-0.29-10.37-0.29-14.8v-71.55h18.97v138.54h-25.81l-40.23-115.19
			c0.26,3.29,0.54,7.4,0.86,12.33c0.31,4.94,0.57,10.06,0.76,15.37c0.19,5.31,0.28,10.25,0.28,14.81v72.68H1270.85z"/>
		<path class="st4" d="M1387.18,1340.7v-138.54h81.41v18.22h-61.29v39.28h54.65v18.03h-54.65v44.79h61.29v18.21H1387.18z"/>
		<path class="st4" d="M1540.7,1342.6c-9.37,0-17.4-1.55-24.1-4.65c-6.71-3.1-11.89-7.52-15.57-13.29
			c-3.66-5.76-5.5-12.62-5.5-20.59h20.31c0,6.32,2.21,11.29,6.64,14.89c4.43,3.61,10.56,5.42,18.41,5.42
			c7.34,0,13.09-1.77,17.27-5.31c4.18-3.54,6.26-8.41,6.26-14.61c0-5.19-1.42-9.68-4.27-13.47c-2.84-3.8-6.93-6.39-12.24-7.79
			l-17.46-5.12c-10.13-2.91-17.94-7.87-23.44-14.9c-5.5-7.02-8.26-15.4-8.26-25.14c0-7.59,1.71-14.23,5.13-19.93
			s8.28-10.12,14.61-13.29c6.32-3.16,13.78-4.74,22.39-4.74c12.65,0,22.8,3.42,30.46,10.25c7.65,6.83,11.54,16.01,11.68,27.51h-20.5
			c0-6.07-1.93-10.85-5.79-14.33c-3.86-3.48-9.27-5.22-16.22-5.22c-6.71,0-11.95,1.62-15.75,4.84s-5.69,7.75-5.69,13.57
			c0,5.19,1.43,9.68,4.27,13.47c2.85,3.8,6.93,6.45,12.24,7.97l17.65,5.31c10.12,2.78,17.9,7.72,23.34,14.81
			c5.44,7.08,8.16,15.56,8.16,25.43c0,7.72-1.84,14.51-5.5,20.4c-3.67,5.88-8.79,10.44-15.37,13.66
			C1557.28,1340.99,1549.55,1342.6,1540.7,1342.6z"/>
	</g>
	<g>
		<polygon class="st3" points="978.3,657.4 733.56,1104.33 1034.72,820.95 		"/>
		<polygon class="st4" points="734.89,1138.03 1101.7,1015.1 1043.82,847.34 		"/>
		<polygon class="st4" points="1031.36,733.16 1128.68,1015.25 1129.18,1015.63 1136.34,905.29 		"/>
		<polygon class="st3" points="1136.34,905.29 1129.18,1015.63 1266.44,1118.6 		"/>
	</g>
</g>
</svg>
