<?xml version="1.0" encoding="utf-8"?>
<!-- Generator: Adobe Illustrator 25.2.0, SVG Export Plug-In . SVG Version: 6.00 Build 0)  -->
<svg version="1.1" id="Layer_1" xmlns="http://www.w3.org/2000/svg" xmlns:xlink="http://www.w3.org/1999/xlink" x="0px" y="0px"
	 viewBox="0 0 2000 2000" style="enable-background:new 0 0 2000 2000;" xml:space="preserve">
<style type="text/css">
	.st0{display:none;fill:#405C58;}
	.st1{display:none;fill:#FFFFFF;stroke:#000000;stroke-miterlimit:10;}
	.st2{fill:#01252D;}
	.st3{fill:#E95B27;}
	.st4{fill:#25B5E9;}
</style>
<rect class="st2" width="2000" height="2000"/>
<g>
	<g>
		<path class="st3" d="M422.27,1167.52c0,13.34-9.39,22.66-22.83,22.66c-1.6,0-3.05-0.27-3.99-0.74l-2.16-1.08v16.08l1.09,0.31
			c1.35,0.39,3.11,0.59,5.06,0.59c22.26,0,37.81-15.55,37.81-37.81v-89.35h-14.98V1167.52z"/>
		<path class="st3" d="M559.28,1075.65c-0.39,0-0.78,0.01-1.16,0.01c-16.97-0.34-33.64,6.65-46.17,19.18
			c-12.55,12.56-19.55,29.4-19.2,46.16c-0.35,16.77,6.62,33.55,19.12,46.04c12.23,12.24,28.6,19.19,45.01,19.19
			c0.81,0,1.62,0,2.43,0c16.43,0,32.78-6.97,45.05-19.23c12.51-12.51,19.49-29.28,19.14-45.94c0.35-16.78-6.66-33.61-19.22-46.18
			C591.99,1082.62,575.66,1075.65,559.28,1075.65z M607.79,1141.06c0.25,12.81-5.06,25.61-14.56,35.11
			c-9.28,9.28-21.71,14.54-34.28,14.54c-0.57,0-1.15,0-1.73,0c-12.52,0-24.95-5.28-34.24-14.55c-9.49-9.5-14.8-22.29-14.54-35.16
			c-0.25-12.87,5.08-25.73,14.63-35.28c9.28-9.28,21.68-14.55,34.16-14.55c0.28,0,0.57,0,0.85,0.01h0.06
			c12.72-0.11,25.51,5.05,35,14.54C602.7,1115.27,608.03,1128.13,607.79,1141.06z"/>
		<path class="st3" d="M688.56,1112.77c0-12.4,9.08-21.4,21.59-21.4h2.39v-14.8h-2.39c-20.84,0-36.56,15.57-36.56,36.21
			c0,13.6,5.4,21.13,14.3,31.91c7.83,9.48,11.11,14.74,11.11,22.84c0,13.34-9.39,22.66-22.84,22.66c-1.56,0-2.81-0.24-4.06-0.77
			l-2.09-0.9v15.82l0.94,0.37c1.08,0.43,2.78,0.64,5.2,0.64c22.27,0,37.82-15.55,37.82-37.81c0-13.77-5.73-21.85-14.49-32.63
			C692.24,1126.29,688.56,1120.51,688.56,1112.77z"/>
		<polygon class="st3" points="822.78,1133.28 785.16,1133.28 785.16,1078.17 769.99,1078.17 769.99,1203.72 785.16,1203.72 
			785.16,1148.44 822.78,1148.44 822.78,1203.72 837.94,1203.72 837.94,1078.17 822.78,1078.17 		"/>
		<polygon class="st4" points="1035.63,1133.28 998.01,1133.28 998.01,1078.17 982.85,1078.17 982.85,1203.72 998.01,1203.72 
			998.01,1148.44 1035.63,1148.44 1035.63,1203.72 1050.79,1203.72 1050.79,1078.17 1035.63,1078.17 		"/>
		<path class="st4" d="M1098.32,1201.69l-0.78,2.04h16.28l6.61-17.71h55.53l6.62,17.71h16.28l-50.66-131.99L1098.32,1201.69z
			 M1148.2,1112.89l22.71,60.11h-45.41L1148.2,1112.89z"/>
		<rect x="1245.61" y="1078.17" class="st4" width="15.16" height="125.55"/>
		<polygon class="st4" points="1377.63,1157.28 1325.74,1070.86 1325.74,1203.72 1340.91,1203.72 1340.91,1124.95 1392.79,1211 
			1392.79,1078.17 1377.63,1078.17 		"/>
		<polygon class="st4" points="1457.75,1203.72 1513.89,1203.72 1513.89,1188.56 1472.92,1188.56 1472.92,1148.44 1513.89,1148.44 
			1513.89,1133.28 1472.92,1133.28 1472.92,1093.33 1513.89,1093.33 1513.89,1078.17 1457.75,1078.17 		"/>
		<path class="st4" d="M1592.22,1134.88c-7.25-8.59-10.92-14.37-10.92-22.12c0-12.4,9.08-21.4,21.59-21.4h2.39v-14.8h-2.39
			c-20.84,0-36.56,15.57-36.56,36.21c0,13.6,5.4,21.13,14.3,31.91c7.83,9.48,11.11,14.74,11.11,22.84
			c0,13.34-9.39,22.66-22.84,22.66c-1.56,0-2.81-0.24-4.06-0.77l-2.09-0.9v15.82l0.94,0.37c1.08,0.43,2.78,0.64,5.2,0.64
			c22.27,0,37.82-15.55,37.82-37.81C1606.71,1153.74,1600.98,1145.66,1592.22,1134.88z"/>
	</g>
	<g>
		<polygon class="st3" points="1259.83,789 1073.68,875.59 981.47,990.63 		"/>
		<polygon class="st4" points="985.87,872.69 813.87,895.58 937.26,947.97 971.46,882.88 906.77,1044.74 916.54,1037.66 
			1074.14,873.24 1088.81,849.6 740.17,864.29 781.1,881.67 		"/>
	</g>
</g>
</svg>
