<?xml version="1.0" encoding="utf-8"?>
<!-- Generator: Adobe Illustrator 25.2.0, SVG Export Plug-In . SVG Version: 6.00 Build 0)  -->
<svg version="1.1" id="Layer_1" xmlns="http://www.w3.org/2000/svg" xmlns:xlink="http://www.w3.org/1999/xlink" x="0px" y="0px"
	 viewBox="0 0 2000 2000" style="enable-background:new 0 0 2000 2000;" xml:space="preserve">
<style type="text/css">
	.st0{display:none;fill:#EFA500;}
	.st1{fill:#7BCC80;}
	.st2{fill:#333333;}
</style>
<rect class="st0" width="2000" height="2000"/>
<g>
	<g>
		<path class="st1" d="M391.47,1176.45c0,14.05-9.89,23.86-24.05,23.86c-1.68,0-3.21-0.28-4.2-0.78l-2.28-1.14v16.93l1.15,0.33
			c1.42,0.41,3.27,0.62,5.33,0.62c23.45,0,39.83-16.38,39.83-39.83v-94.11h-15.78V1176.45z"/>
		<path class="st1" d="M535.78,1079.69c-0.41,0-0.82,0.01-1.23,0.01c-17.87-0.36-35.44,7-48.63,20.2
			c-13.22,13.23-20.59,30.97-20.22,48.62c-0.36,17.66,6.97,35.34,20.14,48.5c12.89,12.89,30.12,20.21,47.41,20.21
			c0.85,0,1.71,0,2.56,0c17.3,0,34.53-7.34,47.45-20.25c13.18-13.18,20.53-30.84,20.16-48.39c0.37-17.67-7.02-35.4-20.25-48.64
			C570.24,1087.03,553.03,1079.69,535.78,1079.69z M586.88,1148.59c0.26,13.5-5.33,26.97-15.33,36.98
			c-9.77,9.77-22.87,15.32-36.11,15.32c-0.6,0-1.21,0-1.82,0c-13.19,0-26.28-5.56-36.06-15.33c-10-10-15.58-23.48-15.32-37.03
			c-0.26-13.55,5.35-27.1,15.41-37.16c9.78-9.78,22.84-15.33,35.98-15.33c0.3,0,0.6,0,0.9,0.01h0.06
			c13.4-0.12,26.87,5.32,36.87,15.31C581.52,1121.42,587.13,1134.97,586.88,1148.59z"/>
		<path class="st1" d="M671.96,1118.78c0-13.07,9.56-22.55,22.74-22.55h2.52v-15.59h-2.52c-21.95,0-38.51,16.4-38.51,38.14
			c0,14.33,5.69,22.26,15.06,33.61c8.25,9.99,11.7,15.53,11.7,24.06c0,14.05-9.89,23.86-24.05,23.86c-1.64,0-2.96-0.25-4.28-0.81
			l-2.2-0.95v16.66l0.99,0.39c1.13,0.45,2.93,0.67,5.48,0.67c23.46,0,39.84-16.38,39.84-39.83c0-14.51-6.04-23.02-15.26-34.37
			C675.83,1133.03,671.96,1126.93,671.96,1118.78z"/>
		<polygon class="st1" points="813.33,1140.38 773.7,1140.38 773.7,1082.34 757.73,1082.34 757.73,1214.58 773.7,1214.58 
			773.7,1156.35 813.33,1156.35 813.33,1214.58 829.3,1214.58 829.3,1082.34 813.33,1082.34 		"/>
		<polygon class="st2" points="1037.53,1140.38 997.91,1140.38 997.91,1082.34 981.93,1082.34 981.93,1214.58 997.91,1214.58 
			997.91,1156.35 1037.53,1156.35 1037.53,1214.58 1053.5,1214.58 1053.5,1082.34 1037.53,1082.34 		"/>
		<path class="st2" d="M1103.56,1212.44l-0.82,2.14h17.15l6.97-18.66h58.49l6.97,18.66h17.14l-53.36-139.02L1103.56,1212.44z
			 M1156.11,1118.91l23.92,63.31h-47.83L1156.11,1118.91z"/>
		<rect x="1258.71" y="1082.34" class="st2" width="15.97" height="132.25"/>
		<polygon class="st2" points="1397.77,1165.67 1343.11,1074.64 1343.11,1214.58 1359.08,1214.58 1359.08,1131.61 1413.73,1222.25 
			1413.73,1082.34 1397.77,1082.34 		"/>
		<polygon class="st2" points="1482.16,1214.58 1541.29,1214.58 1541.29,1198.62 1498.13,1198.62 1498.13,1156.35 1541.29,1156.35 
			1541.29,1140.38 1498.13,1140.38 1498.13,1098.31 1541.29,1098.31 1541.29,1082.34 1482.16,1082.34 		"/>
		<path class="st2" d="M1623.8,1142.08c-7.63-9.05-11.51-15.14-11.51-23.3c0-13.07,9.56-22.55,22.74-22.55h2.52v-15.59h-2.52
			c-21.95,0-38.51,16.4-38.51,38.14c0,14.33,5.69,22.26,15.06,33.61c8.25,9.99,11.7,15.53,11.7,24.06
			c0,14.05-9.89,23.86-24.05,23.86c-1.64,0-2.96-0.25-4.28-0.81l-2.2-0.95v16.66l0.99,0.39c1.13,0.45,2.93,0.67,5.48,0.67
			c23.46,0,39.84-16.38,39.84-39.83C1639.06,1161.94,1633.02,1153.43,1623.8,1142.08z"/>
	</g>
	<g>
		<polygon class="st2" points="1273.69,777.75 1077.61,868.96 980.49,990.13 		"/>
		<polygon class="st1" points="985.12,865.9 803.95,890.02 933.91,945.19 969.93,876.63 901.79,1047.13 912.09,1039.67 
			1078.09,866.48 1093.55,841.58 726.31,857.06 769.43,875.36 		"/>
	</g>
</g>
</svg>
